<svg xmlns="http://www.w3.org/2000/svg" xml:space="preserve" viewBox="0 0 20 24"><path d="M10.8 20.5c-.3.4-.6.5-.8.5s-.5-.1-.8-.5c-.4-.4-.7-1-1.1-1.8-.6-1.6-1-3.7-1.1-6.2h6c-.1 2.5-.5 4.6-1.1 6.2-.3.8-.7 1.4-1.1 1.8m2.2-9H7c.1-2.5.5-4.6 1.1-6.2.3-.8.7-1.4 1.1-1.8.3-.4.6-.5.8-.5s.5.1.8.5c.4.4.7 1 1.1 1.8.6 1.6 1 3.7 1.1 6.2m1 1c-.1 3.6-.9 6.7-2.1 8.3 4-.9 6.9-4.3 7.1-8.3zm5-1h-5c-.1-3.6-.9-6.7-2.1-8.3 3.9.8 6.9 4.2 7.1 8.3m-13 0c.1-3.6.9-6.7 2.1-8.3-4 .9-6.9 4.3-7.1 8.3zm-5 1c.2 4 3.1 7.4 7.1 8.3-1.2-1.6-2-4.7-2.1-8.3zm19-.5c0-5.5-4.5-10-10-10S0 6.5 0 12s4.5 10 10 10 10-4.5 10-10" style="fill-rule:evenodd;clip-rule:evenodd"/></svg>
