<svg xmlns="http://www.w3.org/2000/svg" xmlns:xlink="http://www.w3.org/1999/xlink" xml:space="preserve" viewBox="0 0 17.1 24"><defs><path id="a" d="M0 0h17.1v24H0z"/></defs><clipPath id="b"><use xlink:href="#a" style="overflow:visible"/></clipPath><g style="clip-path:url(#b)"><defs><path id="c" d="M0 2.2h17.1v19.5H0z"/></defs><clipPath id="d"><use xlink:href="#c" style="overflow:visible"/></clipPath><path d="M17.1 10.2c-1.7 0-3.3-.5-4.7-1.5v6.8c0 1.3-.4 2.5-1.1 3.5s-1.7 1.8-2.9 2.3c-1.2.4-2.5.5-3.7.2s-2.3-1-3.1-1.9c-.8-1-1.3-2.1-1.5-3.4-.1-1.3.1-2.5.7-3.6s1.5-2 2.6-2.6c1.1-.5 2.4-.7 3.6-.6v3.4q-.9-.3-1.8 0c-.6.2-1.1.6-1.4 1-.3.5-.5 1.1-.5 1.7s.2 1.2.6 1.7.9.8 1.4 1q.9.3 1.8 0c.6-.2 1.1-.5 1.4-1s.5-1 .5-1.6V2.2h3.4c0 .3 0 .6.1.8.1.6.4 1.2.7 1.7.4.5.8 1 1.3 1.3.8.5 1.6.8 2.6.8z" style="clip-path:url(#d)"/></g></svg>